<svg width="65" height="65" viewBox="0 0 65 65" fill="none" xmlns="http://www.w3.org/2000/svg">
<g clip-path="url(#clip0_101_36)">
<path d="M32.5 0C23.8805 0 15.614 3.4241 9.51903 9.51903C3.4241 15.614 0 23.8805 0 32.5C0 41.1195 3.4241 49.386 9.51903 55.481C15.614 61.5759 23.8805 65 32.5 65C41.1195 65 49.386 61.5759 55.481 55.481C61.5759 49.386 65 41.1195 65 32.5C65 23.8805 61.5759 15.614 55.481 9.51903C49.386 3.4241 41.1195 0 32.5 0V0ZM46.0687 12.8483C47.9321 12.8483 49.4542 14.3677 49.4542 16.231C49.4447 17.1094 49.0943 17.9498 48.4767 18.5746C47.8592 19.1993 47.023 19.5596 46.1448 19.5793C45.2666 19.599 44.4151 19.2765 43.7702 18.6801C43.1253 18.0836 42.7375 17.2598 42.6887 16.3827L35.6552 14.9012L33.4885 25.0494C38.4285 25.239 42.9135 26.761 46.1473 29.0794C46.9815 28.2425 48.1244 27.7496 49.4162 27.7496C52.0379 27.7496 54.1667 29.8783 54.1667 32.5C54.1667 34.4392 52.9885 36.1102 51.4312 36.8712C51.5085 37.3367 51.5466 37.8078 51.545 38.2796C51.545 45.5758 43.0679 51.4692 32.5758 51.4692C22.0837 51.4692 13.6067 45.5758 13.6067 38.2796C13.6067 37.784 13.6473 37.2883 13.7231 36.8333C12.8847 36.4613 12.1724 35.8537 11.6729 35.0844C11.1733 34.3151 10.908 33.4173 10.9092 32.5C10.9092 29.8783 13.0379 27.7496 15.6596 27.7496C16.9135 27.7496 18.0917 28.2804 18.9285 29.0767C22.1975 26.6852 26.7231 25.2037 31.7769 25.0494L34.1737 13.7231C34.231 13.5051 34.3658 13.3154 34.5529 13.1896C34.7475 13.0763 34.9759 13.036 35.1975 13.0758L43.0679 14.7469C43.3339 14.1764 43.758 13.6942 44.29 13.3577C44.8219 13.0211 45.4393 12.8443 46.0687 12.8483V12.8483ZM25.0521 32.5C23.186 32.5 21.6667 34.0221 21.6667 35.8854C21.6667 37.746 23.186 39.2654 25.0521 39.2654C26.9127 39.2654 28.4321 37.746 28.4321 35.8827C28.4321 34.0194 26.9127 32.5 25.0494 32.5H25.0521ZM39.9479 32.5C38.0873 32.5 36.5679 34.0194 36.5679 35.8854C36.5679 37.746 38.0873 39.2654 39.9506 39.2654C41.814 39.2654 43.3333 37.746 43.3333 35.8827C43.3333 34.0221 41.8112 32.5 39.9479 32.5V32.5ZM25.1442 43.3062C24.9102 43.3051 24.6853 43.3967 24.5185 43.5608C24.354 43.728 24.2617 43.9532 24.2617 44.1878C24.2617 44.4224 24.354 44.6476 24.5185 44.8148C26.799 47.0952 31.246 47.2875 32.5379 47.2875C33.8298 47.2875 38.239 47.1358 40.5573 44.8148C40.7156 44.6483 40.8103 44.4314 40.8246 44.2021C40.839 43.9728 40.7722 43.7458 40.6358 43.5608C40.4685 43.3954 40.2428 43.3027 40.0075 43.3027C39.7722 43.3027 39.5465 43.3954 39.3792 43.5608C37.8977 45.0044 34.8183 45.5379 32.5758 45.5379C30.3333 45.5379 27.216 45.0071 25.7725 43.5608C25.6899 43.4786 25.5919 43.4135 25.4841 43.3694C25.3762 43.3252 25.2607 43.3028 25.1442 43.3035V43.3062Z" fill="#18D860"/>
</g>
<defs>
<clipPath id="clip0_101_36">
<rect width="65" height="65" fill="white"/>
</clipPath>
</defs>
</svg>
